# xmcd
#
# Track frame offsets: 
#        150
#        8540
#        18983
#        49225
#        64050
#        74793
#        133208
#        145398
#        172313
#        202130
#        221883
#
# Disc length: 3247 seconds
#
# Revision: 2
# Processed by: cddbd v1.5.2PL0 Copyright (c) Steve Scherf et al.
# Submitted via: ExactAudioCopy v1.0b3
#
DISCID=b80cad0b
DTITLE=Various Artist - 邦楽ニューウェーブ
DYEAR=2003
DGENRE=New Age
TTITLE0=森川浩恵 - 蘇る五つの歌（第三章）
TTITLE1=吉田兄弟 - モダン
TTITLE2=木下伸市 - 津軽おはら節
TTITLE3=澤田勝秋・木津茂理 - 雨降り唄〜越後松坂
TTITLE4=伝の会 - 虫の合方
TTITLE5=坂田美子 - 祇園精舎
TTITLE6=伶楽舎 - 黄鐘調調子
TTITLE7=宮西希 - Spring wellow
TTITLE8=一噌幸弘 - 落石覚悟
TTITLE9=ヒダノ修一 - 海老天
TTITLE10=コクー - タルカス変奏曲
EXTD=YEAR: 2003
EXTT0=
EXTT1=
EXTT2=
EXTT3=
EXTT4=
EXTT5=
EXTT6=
EXTT7=
EXTT8=
EXTT9=
EXTT10=
PLAYORDER=
